<svg width="32" height="32" viewBox="0 0 32 32" fill="none" xmlns="http://www.w3.org/2000/svg">
  <rect width="32" height="32" rx="8" fill="#0EA5E9"/>
  <path d="M8 12C8 8.68629 10.6863 6 14 6H18C21.3137 6 24 8.68629 24 12V20C24 23.3137 21.3137 26 18 26H14C10.6863 26 8 23.3137 8 20V12Z" fill="white"/>
  <path d="M12 10C12 9.44772 12.4477 9 13 9H15C15.5523 9 16 9.44772 16 10V14C16 14.5523 15.5523 15 15 15H13C12.4477 15 12 14.5523 12 14V10Z" fill="#0EA5E9"/>
  <path d="M18 10C18 9.44772 18.4477 9 19 9H21C21.5523 9 22 9.44772 22 10V14C22 14.5523 21.5523 15 21 15H19C18.4477 15 18 14.5523 18 14V10Z" fill="#0EA5E9"/>
  <path d="M14 17C14 16.4477 14.4477 16 15 16H17C17.5523 16 18 16.4477 18 17V21C18 21.5523 17.5523 22 17 22H15C14.4477 22 14 21.5523 14 21V17Z" fill="#0EA5E9"/>
</svg>
